#N canvas 183 56 1345 667 12;
#X text 230 102 chord generator;
#X obj 34 206 inlet;
#X text 84 205 base note in midi;
#X text 775 459 ziji zhou;
#X obj 310 207 inlet;
#X text 362 209 major/minor 1 if major \, 0 if minor;
#X obj 35 415 outlet;
#X obj 35 368 mtof;
#X text 83 421 root;
#X obj 310 263 expr if($f1 == 1 \, 4 \, 3);
#X floatatom 308 305 5 0 0 0 - - - 0;
#X obj 277 347 +;
#X obj 277 414 outlet;
#X obj 277 391 mtof;
#X obj 55 295 s base;
#X obj 707 216 inlet;
#X floatatom 705 314 5 0 0 0 - - - 0;
#X obj 674 354 +;
#X obj 674 423 outlet;
#X obj 674 400 mtof;
#X text 759 218 dim/perfect 1 if dim \, 0 if perfect;
#X obj 707 249 expr if($f1 == 1 \, 6 \, 7);
#X obj 1039 218 inlet;
#X floatatom 1037 316 5 0 0 0 - - - 0;
#X obj 1006 352 +;
#X obj 1006 425 outlet;
#X obj 1006 402 mtof;
#X text 335 416 3rd;
#X text 754 426 5th;
#X text 1068 431 7th;
#X obj 1039 251 expr if($f1 == 1 \, 10 \, 11);
#X text 1091 220 dim/perfect 1 if dom \, 0 if maj;
#X floatatom 312 366 5 0 0 0 - - - 0;
#X floatatom 717 377 5 0 0 0 - - - 0;
#X floatatom 1034 376 5 0 0 0 - - - 0;
#X connect 1 0 7 0;
#X connect 1 0 14 0;
#X connect 1 0 11 0;
#X connect 1 0 17 0;
#X connect 1 0 24 0;
#X connect 4 0 9 0;
#X connect 7 0 6 0;
#X connect 9 0 10 0;
#X connect 10 0 11 1;
#X connect 11 0 13 0;
#X connect 11 0 32 0;
#X connect 13 0 12 0;
#X connect 15 0 21 0;
#X connect 16 0 17 1;
#X connect 17 0 19 0;
#X connect 17 0 33 0;
#X connect 19 0 18 0;
#X connect 21 0 16 0;
#X connect 22 0 30 0;
#X connect 23 0 24 1;
#X connect 24 0 26 0;
#X connect 24 0 34 0;
#X connect 26 0 25 0;
#X connect 30 0 23 0;
