#N canvas 1 38 1704 973 12;
#X floatatom 210 137 5 0 0 0 - - - 0;
#X floatatom 295 136 5 0 0 0 - - - 0;
#X text 175 139 real;
#X text 333 140 imaginary;
#X obj 153 109 bng 19 250 50 0 empty empty empty 0 -10 0 12 #fcfcfc #000000 #000000;
#X obj 225 111 unpack f f f;
#X floatatom 444 140 5 0 0 0 - - - 0;
#X text 483 144 time in between each call;
#X obj 159 635 osc~;
#X floatatom 157 371 5 0 0 0 - - - 0;
#X obj 278 649 adsr~ 500 20 0 0.3 10;
#X obj 210 172 s real;
#X obj 158 270 r real;
#X obj 295 175 s imag;
#X obj 444 172 s time;
#X obj 91 140 s newinfo;
#X obj 278 555 r newinfo;
#X obj 306 591 r time;
#X floatatom 159 500 5 0 0 0 - - - 0;
#X obj 159 476 line 0;
#X obj 159 412 pack f f;
#X listbox 159 442 20 0 0 0 - - - 0;
#X obj 212 349 r time;
#X obj 212 373 * 500;
#X obj 226 82 netreceive 1000;
#X obj 200 768 output~;
#X obj 158 313 * 300;
#X obj 159 579 chordgen;
#X obj 159 523 ftom;
#X floatatom 159 547 5 0 0 0 - - - 0;
#X obj 159 668 *~;
#X obj 169 609 s a;
#X obj 199 609 s b;
#X obj 231 608 s c;
#X obj 563 651 osc~;
#X obj 682 665 adsr~ 500 20 0 0.3 10;
#X obj 682 571 r newinfo;
#X obj 710 607 r time;
#X obj 563 684 *~;
#X obj 935 649 osc~;
#X obj 1054 663 adsr~ 500 20 0 0.3 10;
#X obj 1054 569 r newinfo;
#X obj 1082 605 r time;
#X obj 935 682 *~;
#X obj 1285 657 osc~;
#X obj 1404 671 adsr~ 500 20 0 0.3 10;
#X obj 1404 577 r newinfo;
#X obj 1432 613 r time;
#X obj 1285 690 *~;
#X obj 533 616 r a;
#X obj 935 623 r b;
#X obj 1285 626 r c;
#X msg 224 526 0;
#X msg 265 523 1;
#X obj -149 600 ftom;
#X obj -149 624 - 12;
#X obj -149 648 mtof;
#X obj -136 694 osc~;
#X obj 168 704 r~ out1;
#X obj 883 789 s~ out1;
#X obj 411 761 s~ out2;
#X obj 260 711 r~ out2;
#X obj -136 718 *~ 0.3;
#X obj 934 710 *~ 0.4;
#X obj 1240 725 *~ 0.4;
#X obj 558 714 *~ 0.4;
#X obj 362 691 *~ 0.4;
#X obj -138 784 *~;
#X obj -85 719 adsr~ 500 20 0 0.3 10;
#X obj -85 625 r newinfo;
#X obj -57 661 r time;
#X msg 37 681 20;
#X obj -83 950 writesf~ 2;
#X obj -416 943 give me spaceeeeeeeeeeeeee, f 27;
#X msg -152 890 open -bytes 3 test.wav;
#X msg -207 888 start;
#X msg -172 954 stop;
#X obj -141 473 readsf~;
#X msg -18 435 1;
#X msg -141 435 open snare2.wav;
#X obj -154 371 bng 19 250 50 0 empty empty empty 0 -10 0 12 #fcfcfc #000000 #000000;
#X msg 370 613 20;
#X msg 1156 633 20;
#X obj -57 687 * 500;
#X obj 306 617 * 500;
#X obj 710 633 * 500;
#X obj 1080 630 * 500;
#X obj 1432 639 * 500;
#X obj -209 497 *~ 1;
#X text -88 365 to mark the start;
#X connect 0 0 11 0;
#X connect 1 0 13 0;
#X connect 4 0 15 0;
#X connect 5 0 0 0;
#X connect 5 1 1 0;
#X connect 5 2 6 0;
#X connect 6 0 14 0;
#X connect 8 0 30 0;
#X connect 9 0 20 0;
#X connect 10 0 30 1;
#X connect 12 0 26 0;
#X connect 16 0 10 0;
#X connect 17 0 84 0;
#X connect 18 0 28 0;
#X connect 19 0 18 0;
#X connect 20 0 21 0;
#X connect 21 0 19 0;
#X connect 22 0 23 0;
#X connect 23 0 20 1;
#X connect 24 0 4 0;
#X connect 24 0 5 0;
#X connect 26 0 9 0;
#X connect 27 0 8 0;
#X connect 27 0 54 0;
#X connect 27 1 31 0;
#X connect 27 2 32 0;
#X connect 27 3 33 0;
#X connect 28 0 29 0;
#X connect 29 0 27 0;
#X connect 30 0 66 0;
#X connect 34 0 38 0;
#X connect 35 0 38 1;
#X connect 36 0 35 0;
#X connect 37 0 85 0;
#X connect 38 0 65 0;
#X connect 39 0 43 0;
#X connect 40 0 43 1;
#X connect 41 0 40 0;
#X connect 42 0 86 0;
#X connect 43 0 63 0;
#X connect 44 0 48 0;
#X connect 45 0 48 1;
#X connect 46 0 45 0;
#X connect 47 0 87 0;
#X connect 48 0 64 0;
#X connect 49 0 34 0;
#X connect 50 0 39 0;
#X connect 51 0 44 0;
#X connect 52 0 27 1;
#X connect 52 0 27 2;
#X connect 53 0 27 3;
#X connect 54 0 55 0;
#X connect 55 0 56 0;
#X connect 56 0 57 0;
#X connect 57 0 62 0;
#X connect 58 0 25 0;
#X connect 58 0 72 0;
#X connect 61 0 25 1;
#X connect 61 0 72 1;
#X connect 62 0 67 0;
#X connect 63 0 59 0;
#X connect 64 0 59 0;
#X connect 65 0 60 0;
#X connect 66 0 60 0;
#X connect 67 0 25 0;
#X connect 67 0 25 1;
#X connect 67 0 72 0;
#X connect 67 0 72 1;
#X connect 68 0 67 1;
#X connect 69 0 68 0;
#X connect 70 0 83 0;
#X connect 74 0 72 0;
#X connect 75 0 72 0;
#X connect 76 0 72 0;
#X connect 77 0 88 0;
#X connect 78 0 77 0;
#X connect 79 0 77 0;
#X connect 80 0 79 0;
#X connect 80 0 78 0;
#X connect 83 0 68 1;
#X connect 83 0 68 2;
#X connect 84 0 10 1;
#X connect 84 0 10 2;
#X connect 85 0 35 1;
#X connect 85 0 35 2;
#X connect 86 0 40 1;
#X connect 86 0 40 2;
#X connect 87 0 45 1;
#X connect 87 0 45 2;
#X connect 88 0 72 0;
#X connect 88 0 25 0;
