#N canvas 1 38 1727 1003 12;
#X floatatom 67 97 5 0 0 0 - - - 0;
#X floatatom 139 97 5 0 0 0 - - - 0;
#X obj 67 72 unpack f f f;
#X floatatom 192 97 5 0 0 0 - - - 0;
#X text 63 27 information center;
#X obj 67 47 netreceive 1050;
#X text 63 142 radius;
#X obj 67 122 s radius;
#X obj 139 122 s arg;
#X text 138 143 angle of the point;
#X obj 192 122 s zero;
#X text 240 126 returns a 1 if we are at (or near) origin;
#X obj 1281 745 output~;
#X obj 1459 844 writesf~ 2;
#X msg 1459 747 open -bytes 3 test.wav;
#X msg 1474 775 start;
#X msg 1486 800 stop;
#X obj 106 369 chordgen;
#X floatatom 833 232 5 0 0 0 - - - 0;
#X obj 833 255 s root;
#X obj 107 203 r root;
#X obj 833 93 t b b;
#X obj 833 123 spigot;
#X obj 881 93 == 1;
#X text 871 157 change the root of our chord everytime we hit a zero;
#X text 1542 848 too record;
#X obj 123 230 r radius;
#X obj 123 262 radiuschord;
#X floatatom 123 295 5 0 0 0 - - - 0;
#X floatatom 167 295 5 0 0 0 - - - 0;
#X floatatom 210 295 5 0 0 0 - - - 0;
#X obj 78 325 t b;
#X text 202 331 changes the quality of the chord based on radius;
#X floatatom 64 231 5 0 0 0 - - - 0;
#X obj 833 13 r zero;
#X obj 833 37 change 1;
#X floatatom 833 63 5 0 0 0 - - - 0;
#X obj 833 152 bng 19 250 50 0 empty empty empty 0 -10 0 12 #fcfcfc #000000 #000000;
#X obj 833 184 random 12;
#X obj 106 448 line;
#X obj 106 421 pack f 100;
#X floatatom 106 472 6 0 0 0 - - - 0;
#X obj 192 448 line;
#X floatatom 192 472 5 0 0 0 - - - 0;
#X obj 278 448 line;
#X floatatom 278 472 5 0 0 0 - - - 0;
#X obj 365 448 line;
#X floatatom 365 472 5 0 0 0 - - - 0;
#X obj 105 502 osc~;
#X obj 192 506 osc~;
#X obj 278 505 osc~;
#X obj 365 505 osc~;
#X obj 192 421 pack f 300;
#X obj 278 421 pack f 400;
#X obj 365 421 pack f 500;
#X obj 833 208 + 50;
#X obj 193 544 +~;
#X obj 460 476 cyc~;
#X obj 365 539 *~;
#X obj 278 543 *~;
#X obj 460 421 r arg;
#X obj 720 584 chordgen;
#X obj 737 445 r radius;
#X obj 737 477 radiuschord;
#X floatatom 737 510 5 0 0 0 - - - 0;
#X floatatom 781 510 5 0 0 0 - - - 0;
#X floatatom 824 510 5 0 0 0 - - - 0;
#X obj 692 540 t b;
#X obj 653 541 ftom;
#X obj 720 625 osc~;
#X obj 762 625 osc~;
#X obj 805 625 osc~;
#X obj 848 626 osc~;
#X obj 721 686 *~;
#X obj 760 685 *~;
#X obj 806 686 *~;
#X obj 849 685 *~;
#X obj 892 534 t b b;
#X obj 892 564 spigot;
#X obj 940 534 == 1;
#X obj 892 454 r zero;
#X obj 892 478 change 1;
#X floatatom 892 504 5 0 0 0 - - - 0;
#X obj 892 593 bng 19 250 50 0 empty empty empty 0 -10 0 12 #fcfcfc #000000 #000000;
#X obj 717 727 +~;
#X obj 893 625 adsr~ 1000 800 100 0.6 2000;
#X obj 718 785 clip~ -0.5 0.5;
#X obj 106 544 *~;
#X obj 868 791 +~;
#X obj 868 821 s~ out2;
#X text 898 655 a nice warm chord that supports and hits when we hit zero;
#X obj 106 615 +~;
#X obj 106 663 s~ out1;
#X obj 1283 654 r~ out1;
#X text 501 419 oscillation based on angle;
#X obj 1854 298 readsf~;
#X msg 1956 260 1;
#X msg 1854 260 open kick.wav;
#X obj 1853 222 bng 19 250 50 0 empty empty empty 0 -10 0 12 #fcfcfc #000000 #000000;
#X obj 1991 315 readsf~;
#X msg 2093 259 1;
#X obj 1989 220 bng 19 250 50 0 empty empty empty 0 -10 0 12 #fcfcfc #000000 #000000;
#X msg 1991 277 open hihat.wav;
#X obj 2167 298 readsf~;
#X msg 2290 260 1;
#X obj 2166 222 bng 19 250 50 0 empty empty empty 0 -10 0 12 #fcfcfc #000000 #000000;
#X msg 2167 260 open snare2.wav;
#X obj 1910 387 +~;
#X obj 1911 441 s~ drums;
#X obj 1989 69 r pulse;
#X floatatom 2182 87 5 0 0 0 - - - 0;
#X obj 2182 134 div 1;
#X floatatom 2182 158 5 0 0 0 - - - 0;
#X obj 1990 124 expr if ($f1<$f2 \, 1 \, 0);
#X floatatom 1990 149 5 0 0 0 - - - 0;
#X obj 1990 172 select 0 1;
#X obj 1853 190 r bass;
#X obj 1558 267 r bassR;
#X obj 1558 291 random 11;
#X floatatom 1716 231 5 0 0 0 - - - 0;
#X obj 1716 278 div 1;
#X floatatom 1716 302 5 0 0 0 - - - 0;
#X obj 1558 329 expr if ($f1<$f2 \, 1 \, 0);
#X floatatom 1558 355 5 0 0 0 - - - 0;
#X obj 1558 378 select 0 1;
#X obj 1558 426 s bass;
#X obj 1558 403 bng 19 250 50 0 empty empty empty 0 -10 0 12 #fcfcfc #000000 #000000;
#X obj 2023 210 doubleRand;
#X obj 2084 180 r speed;
#X obj 2201 215 doubleRand;
#X obj 1989 98 random 100;
#X obj 2265 34 r snare;
#X obj 2258 137 expr if ($f1<$f2 \, 1 \, 0);
#X obj 2238 173 select 0 1;
#X obj 2264 62 random 100;
#X floatatom 2264 86 5 0 0 0 - - - 0;
#X obj 2063 404 s hh;
#X obj 2103 404 s sd;
#X obj 1954 351 *~ 1.2;
#X obj 1776 27 r pulse;
#X obj 1888 140 s snare;
#X obj 1774 141 s bassR;
#X obj 599 205 metro;
#X obj 599 172 tgl 19 0 empty empty empty 0 -10 0 12 #fcfcfc #000000 #000000 0 1;
#X obj 642 151 r radius;
#X obj 599 252 s pulse;
#X obj 1716 207 r arg;
#X obj 1349 655 r~ out2;
#X obj 1413 655 r~ drums;
#X obj 106 639 *~ 0.3;
#X obj 1854 322 *~ 5;
#X obj 1910 411 clip~ -1 1;
#X obj 2099 322 *~ 1;
#X obj 1771 736 interval;
#X obj 1722 652 r root;
#X floatatom 1723 707 5 0 0 0 - - - 0;
#X obj 1756 781 +;
#X msg 1813 696 0;
#X msg 1849 696 1;
#X msg 1882 697 2;
#X floatatom 1915 596 5 0 0 0 - - - 0;
#X obj 1915 619 select 0 1 2 3 4;
#X obj 1756 828 mtof;
#X obj 1756 852 osc~;
#X obj 1756 884 *~;
#X obj 1840 517 r hh;
#X obj 1840 565 select 1;
#X obj 1840 541 random 10;
#X obj 1807 765 r hh;
#X obj 1807 789 random 9;
#X floatatom 1936 765 5 0 0 0 - - - 0;
#X obj 1898 826 bng 19 250 50 0 empty empty empty 0 -10 0 12 #fcfcfc #000000 #000000;
#X obj 1889 799 t b f;
#X obj 2003 867 adsr~ 10 30 20 0.3 10;
#X obj 1807 813 select 1 2;
#X obj 2312 637 interval;
#X obj 2263 553 r root;
#X floatatom 2264 608 5 0 0 0 - - - 0;
#X obj 2297 682 +;
#X msg 2354 570 0;
#X msg 2390 570 1;
#X msg 2423 571 2;
#X floatatom 2456 470 5 0 0 0 - - - 0;
#X obj 2456 493 select 0 1 2 3 4;
#X obj 2297 729 mtof;
#X obj 2297 839 osc~;
#X obj 2297 861 *~;
#X obj 2381 439 select 1;
#X obj 2381 415 random 10;
#X obj 2348 766 random 9;
#X floatatom 2477 742 5 0 0 0 - - - 0;
#X obj 2435 811 bng 19 250 50 0 empty empty empty 0 -10 0 12 #fcfcfc #000000 #000000;
#X obj 2430 776 t b f;
#X obj 2381 391 r bass;
#X obj 2348 742 r bass;
#X obj 2297 802 line;
#X obj 2277 761 pack f f;
#X msg 2344 692 100;
#X obj 2385 668 r bass;
#X obj 2544 844 adsr~ 10 60 20 0.3 15;
#X floatatom 1756 805 5 0 0 0 - - - 0;
#X obj 2349 794 select 1;
#X obj 2456 365 r radius;
#X obj 2456 396 rescale 0 6 5 0;
#X obj 2456 420 div 1;
#X obj 868 762 *~ 0.2;
#X obj 1769 117 bng 19 250 50 0 empty empty empty 0 -10 0 12 #fcfcfc #000000 #000000;
#X obj 1921 112 bng 19 250 50 0 empty empty empty 0 -10 0 12 #fcfcfc #000000 #000000;
#X obj 1775 56 random 15;
#X obj 1735 92 select 1 2;
#X obj 1903 88 select 3;
#X obj 1716 254 rescale 0 100 0 9;
#X obj 1916 505 r radius;
#X obj 1916 529 rescale 0 6 5 0;
#X obj 1916 553 div 1;
#X obj 2477 694 r radius;
#X obj 2640 713 r radius;
#X obj 2099 736 r radius;
#X obj 1936 717 r radius;
#X obj 1936 741 rescale 0 6 10 5;
#X obj 2099 760 rescale 0 6 10 40;
#X obj 2640 737 rescale 0 6 500 150;
#X obj 2477 718 rescale 0 6 8 15;
#X obj 2297 886 clip~ -0.9 0.9;
#X obj 2297 706 - 24;
#X obj 738 72 loadbang;
#X obj 2182 59 r radius;
#X obj 2182 110 rescale 0 6 20 90;
#X obj 2323 163 r radius;
#X obj 2323 187 rescale 0 6 0 50;
#X obj 642 175 rescale 0 6 500 100;
#X obj 460 445 rescale 0 90 0 5;
#X obj 1757 919 s~ out3;
#X obj 1480 655 r~ out3;
#X obj 2297 910 s~ bass;
#X obj 1543 654 r~ bass;
#X obj 718 758 *~ 0.1;
#X floatatom 2336 824 5 0 0 0 - - - 0;
#X obj 2574 372 random 2;
#X floatatom 2574 396 5 0 0 0 - - - 0;
#X obj 2574 337 r pulse;
#X obj 2456 444 spigot;
#X text 1591 168 random drum hits based on radius and angle;
#X connect 0 0 7 0;
#X connect 1 0 8 0;
#X connect 2 0 0 0;
#X connect 2 1 1 0;
#X connect 2 2 3 0;
#X connect 3 0 10 0;
#X connect 5 0 2 0;
#X connect 14 0 13 0;
#X connect 15 0 13 0;
#X connect 16 0 13 0;
#X connect 17 0 40 0;
#X connect 17 1 52 0;
#X connect 17 2 53 0;
#X connect 17 3 54 0;
#X connect 18 0 19 0;
#X connect 20 0 33 0;
#X connect 21 0 22 0;
#X connect 22 0 37 0;
#X connect 23 0 22 1;
#X connect 26 0 27 0;
#X connect 27 0 28 0;
#X connect 27 1 29 0;
#X connect 27 2 30 0;
#X connect 28 0 31 0;
#X connect 28 0 17 1;
#X connect 29 0 31 0;
#X connect 29 0 17 2;
#X connect 30 0 31 0;
#X connect 30 0 17 3;
#X connect 31 0 17 0;
#X connect 33 0 17 0;
#X connect 34 0 35 0;
#X connect 35 0 36 0;
#X connect 36 0 21 0;
#X connect 36 0 23 0;
#X connect 37 0 38 0;
#X connect 38 0 55 0;
#X connect 39 0 41 0;
#X connect 40 0 39 0;
#X connect 41 0 48 0;
#X connect 42 0 43 0;
#X connect 43 0 49 0;
#X connect 44 0 45 0;
#X connect 45 0 50 0;
#X connect 46 0 47 0;
#X connect 47 0 51 0;
#X connect 47 0 68 0;
#X connect 48 0 87 0;
#X connect 49 0 56 0;
#X connect 50 0 59 0;
#X connect 51 0 58 0;
#X connect 52 0 42 0;
#X connect 53 0 44 0;
#X connect 54 0 46 0;
#X connect 55 0 18 0;
#X connect 56 0 91 1;
#X connect 57 0 58 1;
#X connect 57 0 59 1;
#X connect 57 0 56 1;
#X connect 57 0 87 1;
#X connect 58 0 91 1;
#X connect 59 0 91 1;
#X connect 60 0 231 0;
#X connect 61 0 69 0;
#X connect 61 1 70 0;
#X connect 61 2 71 0;
#X connect 61 3 72 0;
#X connect 62 0 63 0;
#X connect 63 0 64 0;
#X connect 63 1 65 0;
#X connect 63 2 66 0;
#X connect 64 0 67 0;
#X connect 64 0 61 1;
#X connect 65 0 67 0;
#X connect 65 0 61 2;
#X connect 66 0 67 0;
#X connect 66 0 61 3;
#X connect 67 0 61 0;
#X connect 68 0 61 0;
#X connect 69 0 73 0;
#X connect 70 0 74 0;
#X connect 71 0 75 0;
#X connect 72 0 76 0;
#X connect 73 0 84 0;
#X connect 74 0 84 1;
#X connect 75 0 84 1;
#X connect 76 0 84 1;
#X connect 77 0 78 0;
#X connect 78 0 83 0;
#X connect 79 0 78 1;
#X connect 80 0 81 0;
#X connect 81 0 82 0;
#X connect 82 0 77 0;
#X connect 82 0 79 0;
#X connect 83 0 85 0;
#X connect 84 0 205 0;
#X connect 84 0 236 0;
#X connect 85 0 76 1;
#X connect 85 0 75 1;
#X connect 85 0 74 1;
#X connect 85 0 73 1;
#X connect 86 0 88 0;
#X connect 87 0 91 0;
#X connect 88 0 89 0;
#X connect 91 0 149 0;
#X connect 93 0 12 0;
#X connect 93 0 12 1;
#X connect 95 0 150 0;
#X connect 96 0 95 0;
#X connect 97 0 95 0;
#X connect 98 0 97 0;
#X connect 98 0 96 0;
#X connect 99 0 138 0;
#X connect 100 0 99 0;
#X connect 101 0 102 0;
#X connect 101 0 100 0;
#X connect 101 0 136 0;
#X connect 102 0 99 0;
#X connect 103 0 152 0;
#X connect 104 0 103 0;
#X connect 105 0 106 0;
#X connect 105 0 104 0;
#X connect 105 0 137 0;
#X connect 106 0 103 0;
#X connect 107 0 151 0;
#X connect 109 0 130 0;
#X connect 110 0 127 1;
#X connect 110 0 227 0;
#X connect 111 0 112 0;
#X connect 112 0 113 1;
#X connect 112 0 132 1;
#X connect 113 0 114 0;
#X connect 114 0 115 0;
#X connect 115 1 127 0;
#X connect 116 0 98 0;
#X connect 117 0 118 0;
#X connect 118 0 122 0;
#X connect 119 0 211 0;
#X connect 120 0 121 0;
#X connect 121 0 122 1;
#X connect 122 0 123 0;
#X connect 123 0 124 0;
#X connect 124 1 126 0;
#X connect 126 0 125 0;
#X connect 127 0 101 0;
#X connect 128 0 129 2;
#X connect 128 0 127 2;
#X connect 129 0 105 0;
#X connect 130 0 113 0;
#X connect 131 0 134 0;
#X connect 132 0 133 0;
#X connect 133 1 129 0;
#X connect 134 0 132 0;
#X connect 134 0 135 0;
#X connect 138 0 107 1;
#X connect 139 0 208 0;
#X connect 142 0 145 0;
#X connect 143 0 142 0;
#X connect 144 0 230 0;
#X connect 146 0 119 0;
#X connect 147 0 12 1;
#X connect 147 0 12 0;
#X connect 148 0 12 1;
#X connect 148 0 12 0;
#X connect 149 0 92 0;
#X connect 150 0 107 0;
#X connect 151 0 108 0;
#X connect 152 0 107 1;
#X connect 153 0 156 0;
#X connect 154 0 155 0;
#X connect 155 0 156 1;
#X connect 156 0 200 0;
#X connect 157 0 153 0;
#X connect 158 0 153 0;
#X connect 159 0 153 0;
#X connect 160 0 161 0;
#X connect 161 0 159 0;
#X connect 161 1 159 0;
#X connect 161 2 158 0;
#X connect 161 3 157 0;
#X connect 161 4 157 0;
#X connect 162 0 163 0;
#X connect 163 0 164 0;
#X connect 164 0 232 0;
#X connect 165 0 167 0;
#X connect 166 1 160 0;
#X connect 167 0 166 0;
#X connect 168 0 169 0;
#X connect 169 0 174 0;
#X connect 172 0 171 0;
#X connect 172 0 173 0;
#X connect 173 0 164 1;
#X connect 174 2 172 0;
#X connect 175 0 178 0;
#X connect 176 0 177 0;
#X connect 177 0 178 1;
#X connect 178 0 224 0;
#X connect 179 0 175 0;
#X connect 180 0 175 0;
#X connect 181 0 175 0;
#X connect 182 0 183 0;
#X connect 183 0 181 0;
#X connect 183 1 181 0;
#X connect 183 2 180 0;
#X connect 183 3 179 0;
#X connect 183 4 179 0;
#X connect 184 0 196 0;
#X connect 185 0 186 0;
#X connect 186 0 223 0;
#X connect 187 1 182 0;
#X connect 188 0 187 0;
#X connect 189 0 201 0;
#X connect 191 0 199 0;
#X connect 192 0 191 0;
#X connect 192 0 199 0;
#X connect 193 0 188 0;
#X connect 194 0 189 0;
#X connect 195 0 185 0;
#X connect 195 0 237 0;
#X connect 196 0 195 0;
#X connect 197 0 196 1;
#X connect 198 0 197 0;
#X connect 199 0 186 1;
#X connect 200 0 162 0;
#X connect 201 1 192 0;
#X connect 202 0 203 0;
#X connect 203 0 204 0;
#X connect 204 0 241 0;
#X connect 205 0 88 0;
#X connect 206 0 141 0;
#X connect 207 0 140 0;
#X connect 208 0 209 0;
#X connect 208 0 210 0;
#X connect 209 1 206 0;
#X connect 209 2 206 0;
#X connect 210 1 207 0;
#X connect 211 0 120 0;
#X connect 212 0 213 0;
#X connect 213 0 214 0;
#X connect 214 0 160 0;
#X connect 215 0 222 0;
#X connect 216 0 221 0;
#X connect 217 0 220 0;
#X connect 218 0 219 0;
#X connect 219 0 170 0;
#X connect 219 0 169 1;
#X connect 220 0 173 1;
#X connect 221 0 199 1;
#X connect 222 0 190 0;
#X connect 222 0 189 1;
#X connect 223 0 234 0;
#X connect 224 0 184 0;
#X connect 225 0 38 0;
#X connect 226 0 110 0;
#X connect 227 0 111 0;
#X connect 228 0 229 0;
#X connect 229 0 129 1;
#X connect 230 0 142 1;
#X connect 231 0 57 0;
#X connect 233 0 12 1;
#X connect 235 0 12 1;
#X connect 235 0 12 0;
#X connect 236 0 86 0;
#X connect 238 0 239 0;
#X connect 239 0 241 1;
#X connect 240 0 238 0;
#X connect 241 0 182 0;
