#N canvas 57 274 850 550 12;
#X text 54 44 double randomizer;
#X obj 283 123 inlet;
#X obj 394 130 inlet;
#X text 446 124 between 0-100;
#X obj 285 227 expr if ($f1<$f2 \, 1 \, 0);
#X obj 596 124 inlet;
#X text 642 130 tempo;
#X obj 285 251 select 0 1;
#X obj 361 337 outlet;
#X obj 360 298 delay;
#X obj 289 300 bng 19 250 50 0 empty empty empty 0 -10 0 12 #fcfcfc #000000 #000000;
#X floatatom 596 201 5 0 0 0 - - - 0;
#X floatatom 436 155 5 0 0 0 - - - 0;
#X obj 282 178 random 150;
#X obj 444 321 bng 19 250 50 0 empty empty empty 0 -10 0 12 #fcfcfc #000000 #000000;
#X obj 596 177 / 2;
#X connect 1 0 13 0;
#X connect 2 0 4 1;
#X connect 2 0 12 0;
#X connect 4 0 7 0;
#X connect 5 0 15 0;
#X connect 7 0 10 0;
#X connect 7 1 9 0;
#X connect 7 1 8 0;
#X connect 9 0 8 0;
#X connect 9 0 14 0;
#X connect 10 0 8 0;
#X connect 13 0 4 0;
#X connect 15 0 9 1;
#X connect 15 0 11 0;
