#N canvas 0 65 1728 1052 12;
#X text 205 51 scale interval randomizer;
#X obj 237 75 inlet;
#X text 397 84 0 minor \, 1 major \, 2 harmonic minor;
#X obj 503 186 select 0 1 2 3 4 5 6 7;
#X msg 413 226 0;
#X msg 458 227 2;
#X msg 544 229 5;
#X msg 591 231 7;
#X msg 641 231 9;
#X msg 690 233 11;
#X msg 736 232 12;
#X obj 314 347 outlet;
#X msg 499 227 4;
#X text 674 190 major;
#X obj 235 103 select 0 1 2;
#X obj 122 175 select 0 1 2 3 4 5 6 7;
#X msg 32 215 0;
#X msg 77 216 2;
#X msg 163 218 5;
#X msg 210 220 7;
#X msg 355 221 12;
#X msg 118 216 3;
#X msg 260 220 8;
#X msg 309 222 10;
#X obj 208 136 random 8;
#X obj 462 147 random 8;
#X text 293 179 minor;
#X obj 879 183 select 0 1 2 3 4 5 6 7;
#X msg 789 223 0;
#X msg 834 224 2;
#X msg 920 226 5;
#X msg 967 228 7;
#X msg 1112 229 12;
#X msg 875 224 3;
#X msg 1017 228 8;
#X obj 965 144 random 8;
#X text 1050 187 harmonic minor;
#X msg 1066 230 11;
#X obj 219 287 + 0;
#X obj 600 298 + 0;
#X obj 976 295 + 0;
#X connect 1 0 14 0;
#X connect 3 0 4 0;
#X connect 3 1 5 0;
#X connect 3 2 12 0;
#X connect 3 3 6 0;
#X connect 3 4 7 0;
#X connect 3 5 8 0;
#X connect 3 6 9 0;
#X connect 3 7 10 0;
#X connect 4 0 39 0;
#X connect 5 0 39 0;
#X connect 6 0 39 0;
#X connect 7 0 39 0;
#X connect 8 0 39 0;
#X connect 9 0 39 0;
#X connect 10 0 39 0;
#X connect 12 0 39 0;
#X connect 14 0 24 0;
#X connect 14 1 25 0;
#X connect 14 2 35 0;
#X connect 15 0 16 0;
#X connect 15 1 17 0;
#X connect 15 2 21 0;
#X connect 15 3 18 0;
#X connect 15 4 19 0;
#X connect 15 5 22 0;
#X connect 15 6 23 0;
#X connect 15 7 20 0;
#X connect 16 0 38 0;
#X connect 17 0 38 0;
#X connect 18 0 38 0;
#X connect 19 0 38 0;
#X connect 20 0 38 0;
#X connect 21 0 38 0;
#X connect 22 0 38 0;
#X connect 23 0 38 0;
#X connect 24 0 15 0;
#X connect 25 0 3 0;
#X connect 27 0 28 0;
#X connect 27 1 29 0;
#X connect 27 2 33 0;
#X connect 27 3 30 0;
#X connect 27 4 31 0;
#X connect 27 5 34 0;
#X connect 27 6 37 0;
#X connect 27 7 32 0;
#X connect 28 0 40 0;
#X connect 29 0 40 0;
#X connect 30 0 40 0;
#X connect 31 0 40 0;
#X connect 32 0 40 0;
#X connect 33 0 40 0;
#X connect 34 0 40 0;
#X connect 35 0 27 0;
#X connect 37 0 40 0;
#X connect 38 0 11 0;
#X connect 39 0 11 0;
#X connect 40 0 11 0;
